<?xml version="1.0" encoding="UTF-8"?>
<svg width="54px" height="54px" viewBox="0 0 54 54" version="1.1" xmlns="http://www.w3.org/2000/svg" xmlns:xlink="http://www.w3.org/1999/xlink">
    <title>A05641F7-FF19-42EE-8502-21E03ED8F66B</title>
    <defs>
        <linearGradient x1="0%" y1="51.5171696%" x2="100.000024%" y2="48.4828296%" id="linearGradient-1">
            <stop stop-color="#0073A6" offset="0%"></stop>
            <stop stop-color="#00A6D9" offset="100%"></stop>
        </linearGradient>
        <rect id="path-2" x="0" y="0" width="310" height="54" rx="12"></rect>
        <filter x="-12.7%" y="-45.4%" width="125.5%" height="246.3%" filterUnits="objectBoundingBox" id="filter-3">
            <feMorphology radius="2" operator="dilate" in="SourceAlpha" result="shadowSpreadOuter1"></feMorphology>
            <feOffset dx="0" dy="15" in="shadowSpreadOuter1" result="shadowOffsetOuter1"></feOffset>
            <feGaussianBlur stdDeviation="10" in="shadowOffsetOuter1" result="shadowBlurOuter1"></feGaussianBlur>
            <feComposite in="shadowBlurOuter1" in2="SourceAlpha" operator="out" result="shadowBlurOuter1"></feComposite>
            <feColorMatrix values="0 0 0 0 0   0 0 0 0 0   0 0 0 0 0  0 0 0 0.2 0" type="matrix" in="shadowBlurOuter1"></feColorMatrix>
        </filter>
    </defs>
    <g id="APP" stroke="none" stroke-width="1" fill="none" fill-rule="evenodd">
        <g id="Amigos" transform="translate(-64.000000, -878.000000)">
            <g id="Menú-principal" transform="translate(33.000000, 878.000000)">
                <g id="Rectangle">
                    <use fill="black" fill-opacity="1" filter="url(#filter-3)" xlink:href="#path-2"></use>
                    <rect stroke="#FFFFFF" stroke-width="2" fill="url(#linearGradient-1)" fill-rule="evenodd" x="-1" y="-1" width="312" height="56" rx="12"></rect>
                </g>
                <g id="Menú-principal-/-Amigos" transform="translate(31.000000, 0.000000)" fill="#FFFFFF" fill-rule="nonzero" stroke="#FFFFFF" stroke-width="0.3">
                    <path d="M35,28 C38.8601818,28 42,31.1398182 42,35 C42,38.8601818 38.8601818,42 35,42 C31.1398182,42 28,38.8601818 28,35 C28,31.1398182 31.1398182,28 35,28 Z M28.6737815,12 C30.8317089,12 32.390212,12.72625 33.3076982,14.1575 C34.5016535,16.02 33.9303654,17.30375 33.2416392,18.0525 L32.7841194,18.52125 L32.6715745,20.875 C32.9517136,20.98375 33.2049397,21.16125 33.4055634,21.39625 C33.7480915,21.7975 33.9071225,22.33 33.8422868,22.8575 L33.5364581,25.3575 C33.4434861,26.1225 32.902781,26.735 32.2042682,26.9325 C32.1981516,26.97375 32.192035,27.015 32.1846951,27.0575 C32.129646,27.3975 31.8115841,27.62875 31.4825124,27.5725 C31.1497708,27.5175 30.9234575,27.195 30.9785067,26.855 C31.0066429,26.67875 31.0323326,26.5025 31.0470123,26.32625 C31.0714786,26.00125 31.3381613,25.75 31.6562231,25.75 C32.0232176,25.75 32.285007,25.515 32.3229297,25.2025 L32.6287584,22.7025 C32.6507781,22.52375 32.5993989,22.3525 32.483184,22.2175 C32.3669691,22.08125 32.2054915,22.005 32.0281108,22.00375 C31.86174,22.0025 31.7039324,21.93125 31.5901641,21.8075 C31.4763958,21.68375 31.4164534,21.51875 31.4237933,21.34875 L31.5730377,18.22 C31.5803776,18.065 31.64399,17.91875 31.7516417,17.80875 L32.3632991,17.18375 C32.7461967,16.7675 33.0960647,16.11125 32.2837836,14.8425 C31.6072905,13.78625 30.3937622,13.25 28.6737815,13.25 C27.4198838,13.25 25.9543526,13.385 24.5891332,14.38375 C24.4875981,14.4575 24.3640433,14.49875 24.2392651,14.5 C19.7142235,14.54625 19.3398891,16.3 19.3398891,18.25 C19.3398891,18.86125 19.545406,20.65625 19.6236982,21.2975 C19.6457179,21.475 19.591892,21.65375 19.4756771,21.78875 C19.3606855,21.9225 19.1930914,22 19.016934,22 L18.8909326,22 C18.7123286,22 18.5496277,22.075 18.4321895,22.21125 C18.3147513,22.3475 18.2621488,22.52125 18.2841684,22.7025 L18.5899971,25.2025 C18.6279199,25.515 18.888486,25.75 19.1967613,25.75 L19.3961616,25.75 C19.7154468,25.75 19.9809061,26 20.0065957,26.325 C20.1411604,28.0475 20.9583347,29.78375 22.1938827,30.9675 C22.3553603,31.1225 22.4238659,31.355 22.3688167,31.575 L21.7693925,34.02625 C21.71312,34.25 21.5418559,34.425 21.3228825,34.48125 L16.281602,35.76875 C14.3316381,36.2675 13.3542095,37.85625 13.235548,40.75 L28.6419753,40.74875 C28.9796102,40.74875 29.2536327,41.02875 29.2536327,41.37375 C29.2536327,41.71875 28.9796102,41.99875 28.6419753,41.99875 L12.6116574,42 C12.4501799,42 12.2935956,41.93375 12.178604,41.8175 C12.0636124,41.70125 12,41.54125 12,41.375 C12,37.47125 13.3040536,35.24125 15.9855598,34.55625 L20.6708557,33.35875 L21.0965693,31.6175 C19.9148471,30.37 19.1001194,28.68375 18.8468933,26.965 C18.0823215,26.8125 17.4755573,26.1725 17.3752455,25.35625 L17.0694168,22.85625 C17.0045811,22.32375 17.167282,21.7875 17.5147034,21.38375 C17.7373467,21.12625 18.0236024,20.93875 18.3379943,20.8375 C18.2499156,20.075 18.1165743,18.81125 18.1165743,18.25 C18.1165743,15.8375 18.8260969,13.36375 24.0374182,13.2525 C25.7105051,12.104375 27.4976917,12.0086979 28.4388109,12.0007248 L28.6737815,12 Z M35,29.2727273 C31.8423636,29.2727273 29.2727273,31.8423636 29.2727273,35 C29.2727273,38.1576364 31.8423636,40.7272727 35,40.7272727 C38.1576364,40.7272727 40.7272727,38.1576364 40.7272727,35 C40.7272727,31.8423636 38.1576364,29.2727273 35,29.2727273 Z M35,31.8181818 C35.3512727,31.8181818 35.6363636,32.1032727 35.6363636,32.4545455 L35.636,34.363 L37.5454545,34.3636364 C37.8967273,34.3636364 38.1818182,34.6487273 38.1818182,35 C38.1818182,35.3512727 37.8967273,35.6363636 37.5454545,35.6363636 L35.636,35.636 L35.6363636,37.5454545 C35.6363636,37.8967273 35.3512727,38.1818182 35,38.1818182 C34.6487273,38.1818182 34.3636364,37.8967273 34.3636364,37.5454545 L34.363,35.636 L32.4545455,35.6363636 C32.1032727,35.6363636 31.8181818,35.3512727 31.8181818,35 C31.8181818,34.6487273 32.1032727,34.3636364 32.4545455,34.3636364 L34.363,34.363 L34.3636364,32.4545455 C34.3636364,32.1032727 34.6487273,31.8181818 35,31.8181818 Z" id="Combined-Shape"></path>
                </g>
            </g>
        </g>
    </g>
</svg>