<?xml version="1.0" encoding="UTF-8"?>
<svg width="46px" height="46px" viewBox="0 0 46 46" version="1.1" xmlns="http://www.w3.org/2000/svg" xmlns:xlink="http://www.w3.org/1999/xlink">
    <title>A178F9DC-1F84-41E9-A238-6B70BFC4F8A5</title>
    <defs>
        <rect id="path-1" x="0" y="0" width="375" height="88"></rect>
        <filter x="-11.3%" y="-36.9%" width="122.7%" height="196.6%" filterUnits="objectBoundingBox" id="filter-2">
            <feOffset dx="0" dy="10" in="SourceAlpha" result="shadowOffsetOuter1"></feOffset>
            <feGaussianBlur stdDeviation="12.5" in="shadowOffsetOuter1" result="shadowBlurOuter1"></feGaussianBlur>
            <feColorMatrix values="0 0 0 0 0   0 0 0 0 0   0 0 0 0 0  0 0 0 0.1 0" type="matrix" in="shadowBlurOuter1"></feColorMatrix>
        </filter>
    </defs>
    <g id="APP" stroke="none" stroke-width="1" fill="none" fill-rule="evenodd">
        <g id="Amigos" transform="translate(-323.000000, -39.000000)">
            <rect id="Rectangle" fill="#FFFFFF" x="0" y="0" width="375" height="856"></rect>
            <g id="Cabecera" transform="translate(-1.000000, 0.000000)">
                <g id="Rectangle" transform="translate(1.000000, 0.000000)">
                    <use fill="black" fill-opacity="1" filter="url(#filter-2)" xlink:href="#path-1"></use>
                    <use fill="#FFFFFF" fill-rule="evenodd" xlink:href="#path-1"></use>
                </g>
                <g id="Cabecera-/-Logo" transform="translate(0.000000, 39.000000)"></g>
                <g id="Enlace-Cabecera-/-Ajustes" transform="translate(324.000000, 39.000000)" fill="#0077AA" fill-rule="nonzero">
                    <g id="Group-5" transform="translate(11.000000, 12.000000)">
                        <path d="M16.2602217,22.9464597 C15.9244317,22.9464597 15.5927367,22.8625122 15.2897067,22.6956409 C14.7563329,22.4018247 14.3939254,21.8889259 14.2935979,21.2879846 C14.2086267,20.7812284 13.7407729,20.4444146 13.1930666,20.4986734 C12.5951966,20.5621459 11.9727566,20.5621459 11.3759103,20.4986734 C10.8333228,20.4423671 10.3603503,20.7812284 10.275379,21.2879846 C10.1750515,21.8889259 9.81264403,22.4008009 9.27927026,22.6956409 C8.735659,22.9945759 8.09479148,23.0283597 7.51637271,22.7847072 C6.57554644,22.3885159 5.68488391,21.8745934 4.86793139,21.2552246 C4.37243637,20.8784846 4.07964387,20.3082559 4.06735887,19.6888871 C4.05507387,19.0797558 4.31817762,18.5074796 4.78910264,18.120502 C5.18427015,17.7949495 5.24364765,17.2175545 4.92628514,16.777342 C4.57002013,16.281847 4.26391887,15.7484732 4.01412386,15.1915532 C3.79606511,14.705272 3.25552509,14.4605957 2.78562383,14.6397519 C2.20208631,14.856787 1.57862255,14.799457 1.05753378,14.4861894 C0.528255015,14.1667794 0.179156255,13.6313582 0.0982800028,13.0140369 C0.033783751,12.5052331 0,11.9861919 0,11.4732931 C0,10.9603943 0.033783751,10.4413531 0.0993037528,9.93357306 C0.179156255,9.3162518 0.528255015,8.77980678 1.05855753,8.46142052 C1.58067005,8.14815301 2.20618131,8.09184676 2.77538633,8.30376302 C3.25757259,8.48599052 3.79913636,8.24233802 4.01514761,7.75605675 C4.26494262,7.19913674 4.57104388,6.66576297 4.92833264,6.17026796 C5.2446714,5.73005544 5.1852939,5.15266043 4.79115014,4.82813167 C4.31920137,4.43808291 4.05609762,3.86683039 4.06838262,3.25667537 C4.08066762,2.63833036 4.37243637,2.06810159 4.86793139,1.69136158 C5.68488391,1.07199281 6.57554644,0.558070297 7.51739646,0.161879036 C8.09376773,-0.0817734709 8.73668275,-0.04901347 9.28029401,0.250945289 C9.81366778,0.544761547 10.1760753,1.05766031 10.2764028,1.65860158 C10.361374,2.16535784 10.8353703,2.50524285 11.3769341,2.44791285 C11.9737803,2.38444035 12.5962204,2.38444035 13.1940904,2.44791285 C13.7407729,2.5042191 14.2096504,2.16535784 14.2946217,1.65860158 C14.3949492,1.05766031 14.7573567,0.545785297 15.2907304,0.250945289 C15.833318,-0.0479897199 16.4752092,-0.0817734709 17.053628,0.161879036 C17.9944543,0.558070297 18.8851168,1.07199281 19.7020693,1.69136158 C20.1975643,2.06810159 20.4903568,2.63833036 20.5026418,3.25769912 C20.5149268,3.86683039 20.2518231,4.43910666 19.7808981,4.82608417 C19.3857306,5.15163668 19.3263531,5.72903169 19.6437156,6.16924421 C19.9999806,6.66473922 20.3060818,7.19811299 20.5558768,7.755033 C20.7729118,8.24029052 21.3134519,8.48496677 21.7843769,8.30683427 C22.3668906,8.08979926 22.9913782,8.14610551 23.5124669,8.46039677 C24.0417457,8.77980678 24.3908444,9.31522805 24.4717207,9.93254931 C24.5362169,10.4464718 24.5700007,10.9634656 24.5700007,11.4732931 C24.5700007,11.9831206 24.5362169,12.5001144 24.4706969,13.0130132 C24.3908444,13.6313582 24.0417457,14.1667794 23.5114432,14.4861894 C22.9903544,14.799457 22.3658669,14.8578107 21.7946144,14.6438469 L21.7833531,14.6397519 C21.3144756,14.4626432 20.7718881,14.705272 20.5548531,15.1915532 C20.3050581,15.7484732 19.9989568,16.281847 19.6416681,16.777342 C19.3253293,17.2175545 19.3847068,17.7949495 19.7788506,18.1194783 C20.2497756,18.5074796 20.5128793,19.0797558 20.5005943,19.6899108 C20.4883093,20.3082559 20.1965406,20.8795084 19.7000218,21.2552246 C18.8830693,21.8735697 17.9924068,22.3885159 17.0515805,22.7847072 C16.7966667,22.8922009 16.5284442,22.9464597 16.2602217,22.9464597 Z M13.3179641,19.4698046 C14.3079304,19.4698046 15.1412629,20.1475271 15.3040392,21.1211134 C15.3521554,21.4108346 15.5272167,21.6575584 15.784178,21.7998597 C16.050353,21.9462559 16.369763,21.9626359 16.6553892,21.8418334 C17.5184105,21.4794259 18.335363,21.0074771 19.0827005,20.4403196 C19.3284006,20.2539971 19.4717256,19.9734896 19.4778681,19.6694358 C19.4840106,19.3745958 19.3570656,19.0981833 19.129793,18.9108371 C18.3128405,18.2392571 18.175658,17.0650158 18.8114068,16.1804957 C19.1277455,15.741307 19.4000631,15.2673107 19.6211931,14.7738632 C20.0583343,13.7972057 21.1609131,13.3170669 22.1375706,13.6784507 L22.1437131,13.6804982 C22.4303631,13.7879919 22.7333931,13.7613744 22.9842119,13.6088357 C23.2442444,13.4522019 23.4162344,13.1870507 23.4551369,12.8829969 C23.5155382,12.4130956 23.5462507,11.9390994 23.5462507,11.4732931 C23.5462507,11.0074868 23.5155382,10.5334906 23.4551369,10.0635893 C23.4162344,9.75953556 23.2442444,9.4943843 22.9842119,9.33775055 C22.7323694,9.18623554 22.4303631,9.15859429 22.1559981,9.26199305 C21.1670556,9.63156681 20.0593581,9.15245179 19.6211931,8.17374676 C19.4000631,7.68029925 19.1287693,7.20732674 18.8124305,6.76711422 C18.1766818,5.8825942 18.3128405,4.70835292 19.129793,4.0367729 C19.3580893,3.84942664 19.4850343,3.57301413 19.4788918,3.27817412 C19.4727493,2.97514412 19.3294243,2.69361286 19.0837243,2.5083141 C18.3363868,1.94115659 17.5194342,1.47023157 16.656413,1.10680031 C16.3687392,0.98497406 16.0513767,1.00033031 15.784178,1.14877406 C15.5272167,1.29005157 15.3521554,1.53779908 15.3040392,1.82752033 C15.1289779,2.87584036 14.1697242,3.58222788 13.0865966,3.46654413 C12.5583416,3.41126163 12.0096116,3.41126163 11.4834041,3.46654413 C10.394134,3.58325163 9.44102277,2.87584036 9.26596151,1.82752033 C9.21784526,1.53677533 9.04278401,1.28902782 8.78582275,1.14775031 C8.51862399,1.00033031 8.20023773,0.98497406 7.91461148,1.10577656 C7.0515902,1.46920782 6.23463768,1.94013284 5.48730016,2.50729035 C5.24160015,2.69361286 5.09827515,2.97412037 5.09213265,3.27817412 C5.08599015,3.57301413 5.21293515,3.84942664 5.44020766,4.0367729 C6.25716018,4.70835292 6.39434268,5.8825942 5.75859391,6.76711422 C5.44225516,7.20630299 5.16993765,7.6792755 4.94880764,8.17272301 C4.51064263,9.15245179 3.40396885,9.63054306 2.42628757,9.26608805 C2.14066131,9.15859429 1.83660755,9.18623554 1.58681255,9.33775055 C1.32678004,9.4943843 1.15479003,9.75953556 1.11588753,10.0635893 C1.05446253,10.5293956 1.02375003,11.0044156 1.02375003,11.4732931 C1.02375003,11.9421706 1.05446253,12.4171906 1.11486378,12.8819731 C1.15376628,13.1870507 1.32575629,13.4522019 1.5857888,13.6078119 C1.83660755,13.7603507 2.14066131,13.7859444 2.41400257,13.6835694 C3.40396885,13.3150194 4.51064263,13.7931107 4.94880764,14.7718157 C5.16993765,15.2652632 5.44123141,15.7382357 5.75757016,16.1784482 C6.39331893,17.0629683 6.25716018,18.2372096 5.44020766,18.9087896 C5.2119114,19.0961358 5.0849664,19.3725483 5.0911089,19.6673883 C5.0972514,19.9704184 5.2405764,20.2519496 5.48627641,20.4372484 C6.23361393,21.0044059 7.05056645,21.4753309 7.91358773,21.8387622 C8.20023773,21.9595647 8.51862399,21.9442084 8.78582275,21.7967884 C9.04278401,21.6555109 9.21784526,21.4077634 9.26596151,21.1180421 C9.44102277,20.0697221 10.394134,19.3551446 11.4834041,19.4790183 C12.0106353,19.5343008 12.5593654,19.5343008 13.0865966,19.4790183 C13.1644016,19.4728758 13.2422066,19.4698046 13.3179641,19.4698046 Z" id="Shape"></path>
                        <path d="M12.2850004,16.5920433 C9.46252152,16.5920433 7.1662502,14.2957719 7.1662502,11.4732931 C7.1662502,8.65081428 9.46252152,6.35454296 12.2850004,6.35454296 C15.1074792,6.35454296 17.4037505,8.65081428 17.4037505,11.4732931 C17.4037505,14.2957719 15.1074792,16.5920433 12.2850004,16.5920433 Z M12.2850004,7.37829299 C10.0266078,7.37829299 8.19000023,9.21490054 8.19000023,11.4732931 C8.19000023,13.7316857 10.0266078,15.5682932 12.2850004,15.5682932 C14.5433929,15.5682932 16.3800005,13.7316857 16.3800005,11.4732931 C16.3800005,9.21490054 14.5433929,7.37829299 12.2850004,7.37829299 Z" id="Shape"></path>
                    </g>
                </g>
            </g>
        </g>
    </g>
</svg>