<?xml version="1.0" encoding="UTF-8"?>
<svg width="44px" height="44px" viewBox="0 0 44 44" version="1.1" xmlns="http://www.w3.org/2000/svg" xmlns:xlink="http://www.w3.org/1999/xlink">
    <title>E1B89AA2-D153-4825-94BB-FEABEA3D3F69</title>
    <defs>
        <rect id="path-1" x="0" y="0" width="375" height="54"></rect>
        <filter x="-4.7%" y="-23.1%" width="109.3%" height="164.8%" filterUnits="objectBoundingBox" id="filter-2">
            <feOffset dx="0" dy="5" in="SourceAlpha" result="shadowOffsetOuter1"></feOffset>
            <feGaussianBlur stdDeviation="5" in="shadowOffsetOuter1" result="shadowBlurOuter1"></feGaussianBlur>
            <feColorMatrix values="0 0 0 0 0   0 0 0 0 0   0 0 0 0 0  0 0 0 0.1 0" type="matrix" in="shadowBlurOuter1"></feColorMatrix>
        </filter>
        <path d="M0,1.74543281 C0,2.70941677 0.78121241,3.49086562 1.74519637,3.49086562 L1.74519637,3.49086562 C2.70918032,3.49086562 3.49062918,2.70941677 3.49062918,1.74543281 L3.49062918,1.74543281 C3.49062918,0.781448854 2.70918032,0 1.74519637,0 L1.74519637,0 C0.78121241,0 0,0.781448854 0,1.74543281" id="path-3"></path>
        <path d="M15.2211104,-7.32599434 C15.2211104,-6.36224683 16.0025593,-5.58079797 16.9665432,-5.58079797 L16.9665432,-5.58079797 C17.9302908,-5.58079797 18.7117396,-6.36224683 18.7117396,-7.32599434 L18.7117396,-7.32599434 C18.7117396,-8.2899783 17.9302908,-9.07142715 16.9665432,-9.07142715 L16.9665432,-9.07142715 C16.0025593,-9.07142715 15.2211104,-8.2899783 15.2211104,-7.32599434" id="path-5"></path>
        <path d="M16.9665432,-14.5389682 C10.5224866,-14.5389682 5.28004065,-9.29652225 5.28004065,-2.85270209 L5.28004065,-2.85270209 C5.28004065,-2.35309501 5.68483352,-1.94830214 6.18467706,-1.94830214 L6.18467706,-1.94830214 L11.5815213,-1.94830214 C11.1232919,3.0756692 6.88668058,7.02452769 1.74519637,7.02452769 L1.74519637,7.02452769 C-3.70082828,7.02452769 -8.13203341,2.593559 -8.13203341,-2.85270209 L-8.13203341,-2.85270209 C-8.13203341,-8.29919963 -3.70082828,-12.7301683 1.74519637,-12.7301683 L1.74519637,-12.7301683 C3.35892963,-12.7301683 4.95965844,-12.3327052 6.37454194,-11.580339 L6.37454194,-11.580339 C6.8159837,-11.3455497 7.36335256,-11.5136617 7.59766899,-11.9543941 L7.59766899,-11.9543941 C7.83222187,-12.3958359 7.66481921,-12.9434412 7.2236139,-13.1777576 L7.2236139,-13.1777576 C5.54816864,-14.0682074 3.65401228,-14.5389682 1.74519637,-14.5389682 L1.74519637,-14.5389682 C-4.69862379,-14.5389682 -9.94083333,-9.29652225 -9.94083333,-2.85270209 L-9.94083333,-2.85270209 C-9.94083333,3.59111806 -4.69862379,8.83332761 1.74519637,8.83332761 L1.74519637,8.83332761 C8.18901652,8.83332761 13.4314625,3.59111806 13.4314625,-2.85270209 L13.4314625,-2.85270209 C13.4314625,-3.35254563 13.0264332,-3.75710205 12.5270626,-3.75710205 L12.5270626,-3.75710205 L7.13021835,-3.75710205 C7.58821122,-8.78107339 11.825059,-12.7301683 16.9665432,-12.7301683 L16.9665432,-12.7301683 C22.4125679,-12.7301683 26.843773,-8.29919963 26.843773,-2.85270209 L26.843773,-2.85270209 C26.843773,2.593559 22.4125679,7.02452769 16.9665432,7.02452769 L16.9665432,7.02452769 C15.3523371,7.02452769 13.7513718,6.62706459 12.3369612,5.87517129 L12.3369612,5.87517129 C11.8959924,5.64061841 11.348387,5.80825752 11.1140706,6.24898994 L11.1140706,6.24898994 C10.8795177,6.6904317 11.0469204,7.23803701 11.4878893,7.47258989 L11.4878893,7.47258989 C13.1630981,8.36256674 15.0572544,8.83332761 16.9665432,8.83332761 L16.9665432,8.83332761 C23.410127,8.83332761 28.6523365,3.59111806 28.6523365,-2.85270209 L28.6523365,-2.85270209 C28.6523365,-9.29652225 23.410127,-14.5389682 16.9665432,-14.5389682 Z" id="path-7"></path>
    </defs>
    <g id="APP" stroke="none" stroke-width="1" fill="none" fill-rule="evenodd">
        <g id="Empresas" transform="translate(-321.000000, -441.000000)">
            <rect fill="#FFFFFF" x="0" y="0" width="375" height="812"></rect>
            <g id="Listado-/-Usuario-Copy-5" transform="translate(0.000000, 436.000000)">
                <g id="Rectangle">
                    <use fill="black" fill-opacity="1" filter="url(#filter-2)" xlink:href="#path-1"></use>
                    <use fill="#FFFFFF" fill-rule="evenodd" xlink:href="#path-1"></use>
                </g>
                <text id="Nombre-de-persona" font-family=".AppleSystemUIFont" font-size="16" font-weight="normal" letter-spacing="0.4" fill="#515456">
                    <tspan x="16" y="34">Pizzería Alfredo</tspan>
                </text>
                <g id="Combined-Shape" transform="translate(334.340834, 30.138969)">
                    <mask id="mask-4" fill="white">
                        <use xlink:href="#path-3"></use>
                    </mask>
                    <g id="Clip-2"></g>
                    <path d="M0,1.74543281 C0,2.70941677 0.78121241,3.49086562 1.74519637,3.49086562 L1.74519637,3.49086562 C2.70918032,3.49086562 3.49062918,2.70941677 3.49062918,1.74543281 L3.49062918,1.74543281 C3.49062918,0.781448854 2.70918032,0 1.74519637,0 L1.74519637,0 C0.78121241,0 0,0.781448854 0,1.74543281" id="Fill-1" fill="#1B60A0" mask="url(#mask-4)"></path>
                    <mask id="mask-6" fill="white">
                        <use xlink:href="#path-5"></use>
                    </mask>
                    <g id="Clip-5"></g>
                    <path d="M15.2211104,-7.32599434 C15.2211104,-6.36224683 16.0025593,-5.58079797 16.9665432,-5.58079797 L16.9665432,-5.58079797 C17.9302908,-5.58079797 18.7117396,-6.36224683 18.7117396,-7.32599434 L18.7117396,-7.32599434 C18.7117396,-8.2899783 17.9302908,-9.07142715 16.9665432,-9.07142715 L16.9665432,-9.07142715 C16.0025593,-9.07142715 15.2211104,-8.2899783 15.2211104,-7.32599434" id="Fill-4" fill="#1B60A0" mask="url(#mask-6)"></path>
                    <mask id="mask-8" fill="white">
                        <use xlink:href="#path-7"></use>
                    </mask>
                    <g id="Clip-8"></g>
                    <path d="M16.9665432,-14.5389682 C10.5224866,-14.5389682 5.28004065,-9.29652225 5.28004065,-2.85270209 L5.28004065,-2.85270209 C5.28004065,-2.35309501 5.68483352,-1.94830214 6.18467706,-1.94830214 L6.18467706,-1.94830214 L11.5815213,-1.94830214 C11.1232919,3.0756692 6.88668058,7.02452769 1.74519637,7.02452769 L1.74519637,7.02452769 C-3.70082828,7.02452769 -8.13203341,2.593559 -8.13203341,-2.85270209 L-8.13203341,-2.85270209 C-8.13203341,-8.29919963 -3.70082828,-12.7301683 1.74519637,-12.7301683 L1.74519637,-12.7301683 C3.35892963,-12.7301683 4.95965844,-12.3327052 6.37454194,-11.580339 L6.37454194,-11.580339 C6.8159837,-11.3455497 7.36335256,-11.5136617 7.59766899,-11.9543941 L7.59766899,-11.9543941 C7.83222187,-12.3958359 7.66481921,-12.9434412 7.2236139,-13.1777576 L7.2236139,-13.1777576 C5.54816864,-14.0682074 3.65401228,-14.5389682 1.74519637,-14.5389682 L1.74519637,-14.5389682 C-4.69862379,-14.5389682 -9.94083333,-9.29652225 -9.94083333,-2.85270209 L-9.94083333,-2.85270209 C-9.94083333,3.59111806 -4.69862379,8.83332761 1.74519637,8.83332761 L1.74519637,8.83332761 C8.18901652,8.83332761 13.4314625,3.59111806 13.4314625,-2.85270209 L13.4314625,-2.85270209 C13.4314625,-3.35254563 13.0264332,-3.75710205 12.5270626,-3.75710205 L12.5270626,-3.75710205 L7.13021835,-3.75710205 C7.58821122,-8.78107339 11.825059,-12.7301683 16.9665432,-12.7301683 L16.9665432,-12.7301683 C22.4125679,-12.7301683 26.843773,-8.29919963 26.843773,-2.85270209 L26.843773,-2.85270209 C26.843773,2.593559 22.4125679,7.02452769 16.9665432,7.02452769 L16.9665432,7.02452769 C15.3523371,7.02452769 13.7513718,6.62706459 12.3369612,5.87517129 L12.3369612,5.87517129 C11.8959924,5.64061841 11.348387,5.80825752 11.1140706,6.24898994 L11.1140706,6.24898994 C10.8795177,6.6904317 11.0469204,7.23803701 11.4878893,7.47258989 L11.4878893,7.47258989 C13.1630981,8.36256674 15.0572544,8.83332761 16.9665432,8.83332761 L16.9665432,8.83332761 C23.410127,8.83332761 28.6523365,3.59111806 28.6523365,-2.85270209 L28.6523365,-2.85270209 C28.6523365,-9.29652225 23.410127,-14.5389682 16.9665432,-14.5389682 Z" id="Fill-7" fill="#1B60A0" mask="url(#mask-8)"></path>
                </g>
            </g>
        </g>
    </g>
</svg>