<?xml version="1.0" encoding="UTF-8"?>
<svg width="44px" height="44px" viewBox="0 0 44 44" version="1.1" xmlns="http://www.w3.org/2000/svg" xmlns:xlink="http://www.w3.org/1999/xlink">
    <title>80DE77EF-4D91-4F07-8371-2FFE88A08413</title>
    <defs>
        <rect id="path-1" x="0" y="0" width="375" height="54"></rect>
        <filter x="-4.7%" y="-23.1%" width="109.3%" height="164.8%" filterUnits="objectBoundingBox" id="filter-2">
            <feOffset dx="0" dy="5" in="SourceAlpha" result="shadowOffsetOuter1"></feOffset>
            <feGaussianBlur stdDeviation="5" in="shadowOffsetOuter1" result="shadowBlurOuter1"></feGaussianBlur>
            <feColorMatrix values="0 0 0 0 0   0 0 0 0 0   0 0 0 0 0  0 0 0 0.1 0" type="matrix" in="shadowBlurOuter1"></feColorMatrix>
        </filter>
    </defs>
    <g id="APP" stroke="none" stroke-width="1" fill="none" fill-rule="evenodd">
        <g id="Amigos" transform="translate(-321.000000, -161.000000)">
            <rect id="Rectangle" fill="#FFFFFF" x="0" y="0" width="375" height="856"></rect>
            <g id="Listado-/-Usuario-Copy" transform="translate(0.000000, 156.000000)">
                <g id="Rectangle">
                    <use fill="black" fill-opacity="1" filter="url(#filter-2)" xlink:href="#path-1"></use>
                    <use fill="#FFFFFF" fill-rule="evenodd" xlink:href="#path-1"></use>
                </g>
                <text id="Nombre-de-persona" font-family=".AppleSystemUIFont" font-size="16" font-weight="normal" letter-spacing="0.4" fill="#515456">
                    <tspan x="16" y="34">Lettie Phelps</tspan>
                </text>
                <g id="Combined-Shape" transform="translate(321.000000, 5.000000)" fill="#515456" fill-rule="nonzero" opacity="0.2" stroke="#515456" stroke-width="0.3">
                    <path d="M32.0666667,24.1333333 C36.4415394,24.1333333 40,27.6917939 40,32.0666667 C40,36.4415394 36.4415394,40 32.0666667,40 C27.6917939,40 24.1333333,36.4415394 24.1333333,32.0666667 C24.1333333,27.6917939 27.6917939,24.1333333 32.0666667,24.1333333 Z M24.8969524,6 C27.3426034,6 29.108907,6.82308333 30.1487246,8.44516667 C31.501874,10.556 30.8544142,12.0109167 30.0738577,12.8595 L29.5553354,13.39075 L29.4277844,16.0583333 C29.7452754,16.1815833 30.032265,16.38275 30.2596385,16.6490833 C30.6478371,17.1038333 30.8280721,17.7073333 30.7545917,18.3051667 L30.4079858,21.1385 C30.3026176,22.0055 29.6898184,22.6996667 28.8981706,22.9235 C28.8912385,22.97025 28.8843064,23.017 28.8759878,23.0651667 C28.8135988,23.4505 28.4531287,23.7125833 28.0801807,23.6488333 C27.7030735,23.5865 27.4465852,23.221 27.5089743,22.8356667 C27.540862,22.6359167 27.5699769,22.4361667 27.586614,22.2364167 C27.6143424,21.8680833 27.9165828,21.5833333 28.2770529,21.5833333 C28.6929799,21.5833333 28.9896746,21.317 29.0326537,20.9628333 L29.3792596,18.1295 C29.4042152,17.9269167 29.3459854,17.7328333 29.2142752,17.5798333 C29.0825649,17.4254167 28.899557,17.339 28.6985256,17.3375833 C28.509972,17.3361667 28.3311234,17.2554167 28.202186,17.1151667 C28.0732486,16.9749167 28.0053139,16.7879167 28.0136324,16.59525 L28.1827761,13.0493333 C28.1910946,12.8736667 28.2631886,12.7079167 28.3851939,12.58325 L29.0784057,11.8749167 C29.5123562,11.4031667 29.9088733,10.6594167 28.9882881,9.2215 C28.2215959,8.02441667 26.8462638,7.41666667 24.8969524,7.41666667 C23.4758683,7.41666667 21.8149329,7.56966667 20.2676843,8.70158333 C20.1526111,8.78516667 20.0125824,8.83191667 19.8711672,8.83333333 C14.7427866,8.88575 14.318541,10.8733333 14.318541,13.0833333 C14.318541,13.7760833 14.5514602,15.8104167 14.6401913,16.5371667 C14.6651469,16.7383333 14.6041443,16.9409167 14.472434,17.0939167 C14.3421102,17.2455 14.1521702,17.3333333 13.9525252,17.3333333 L13.8097236,17.3333333 C13.6073058,17.3333333 13.4229114,17.4183333 13.2898148,17.57275 C13.1567181,17.7271667 13.0971019,17.9240833 13.1220575,18.1295 L13.4686634,20.9628333 C13.5116426,21.317 13.8069508,21.5833333 14.1563295,21.5833333 L14.3823165,21.5833333 C14.744173,21.5833333 15.0450269,21.8666667 15.0741418,22.235 C15.2266484,24.1871667 16.1527793,26.1549167 17.5530671,27.4965 C17.736075,27.6721667 17.8137147,27.9356667 17.7513256,28.185 L17.0719781,30.9630833 C17.0082026,31.2166667 16.8141033,31.415 16.5659335,31.47875 L10.8524823,32.9379167 C8.6425232,33.5031667 7.53477082,35.30375 7.40028774,38.5833333 L24.8609054,38.5819167 C25.2435582,38.5819167 25.5541171,38.89925 25.5541171,39.29025 C25.5541171,39.68125 25.2435582,39.9985833 24.8609054,39.9985833 L6.69321175,40 C6.51020385,40 6.33274164,39.9249167 6.20241783,39.7931667 C6.07209402,39.6614167 6,39.4800833 6,39.2916667 C6,34.8674167 7.47792746,32.3400833 10.5169678,31.56375 L15.8269698,30.2065833 L16.3094452,28.2331667 C14.9701601,26.8193333 14.046802,24.90825 13.7598124,22.9603333 C12.8932977,22.7875 12.2056316,22.0621667 12.0919449,21.1370833 L11.745339,18.30375 C11.6718586,17.70025 11.8562529,17.0925 12.2499972,16.6349167 C12.5023262,16.3430833 12.8267493,16.1305833 13.1830602,16.0158333 C13.0832377,15.1516667 12.9321175,13.7194167 12.9321175,13.0833333 C12.9321175,10.3491667 13.7362432,7.54558333 19.6424073,7.4195 C21.5518324,6.10919231 23.5923853,6.00839941 24.6528876,6.00064611 L24.8969524,6 Z M32.0666667,25.5757576 C28.4880121,25.5757576 25.5757576,28.4880121 25.5757576,32.0666667 C25.5757576,35.6453212 28.4880121,38.5575758 32.0666667,38.5575758 C35.6453212,38.5575758 38.5575758,35.6453212 38.5575758,32.0666667 C38.5575758,28.4880121 35.6453212,25.5757576 32.0666667,25.5757576 Z M32.0666667,28.4606061 C32.4647758,28.4606061 32.7878788,28.7837091 32.7878788,29.1818182 L32.787,31.345 L34.9515152,31.3454545 C35.3496242,31.3454545 35.6727273,31.6685576 35.6727273,32.0666667 C35.6727273,32.4647758 35.3496242,32.7878788 34.9515152,32.7878788 L32.787,32.787 L32.7878788,34.9515152 C32.7878788,35.3496242 32.4647758,35.6727273 32.0666667,35.6727273 C31.6685576,35.6727273 31.3454545,35.3496242 31.3454545,34.9515152 L31.345,32.787 L29.1818182,32.7878788 C28.7837091,32.7878788 28.4606061,32.4647758 28.4606061,32.0666667 C28.4606061,31.6685576 28.7837091,31.3454545 29.1818182,31.3454545 L31.345,31.345 L31.3454545,29.1818182 C31.3454545,28.7837091 31.6685576,28.4606061 32.0666667,28.4606061 Z"></path>
                </g>
            </g>
        </g>
    </g>
</svg>